<svg
  width="40"
  height="40"
  viewBox="0 0 24 24"
  fill="none"
  stroke="white"
  strokeWidth="1.5"
  strokeLinecap="round"
  strokeLinejoin="round"
  className="brain-icon"
>
  <path d="M12 2C10.8954 2 10 2.89543 10 4V5.5C10 6.32843 10.6716 7 11.5 7H12.5C13.3284 7 14 6.32843 14 5.5V4C14 2.89543 13.1046 2 12 2Z" />
  <path d="M12 22C13.1046 22 14 21.1046 14 20V18.5C14 17.6716 13.3284 17 12.5 17H11.5C10.6716 17 10 17.6716 10 18.5V20C10 21.1046 10.8954 22 12 22Z" />
  <path d="M4 12C4 10.8954 4.89543 10 6 10H7.5C8.32843 10 9 10.6716 9 11.5V12.5C9 13.3284 8.32843 14 7.5 14H6C4.89543 14 4 13.1046 4 12Z" />
  <path d="M20 12C20 13.1046 19.1046 14 18 14H16.5C15.6716 14 15 13.3284 15 12.5V11.5C15 10.6716 15.6716 10 16.5 10H18C19.1046 10 20 10.8954 20 12Z" />
</svg>